<mxfile host="app.diagrams.net" modified="2022-04-22T13:30:14.025Z" agent="5.0 (Windows NT 10.0; Win64; x64) AppleWebKit/537.36 (KHTML, like Gecko) Chrome/100.0.4896.127 Safari/537.36" etag="In0cf1TKeHupX1N4QzCn" version="17.4.6" type="github">
  <diagram id="Zr8LcyLxZk27ZcQfLZ2V" name="Page-1">
    <mxGraphModel dx="1038" dy="547" grid="1" gridSize="10" guides="1" tooltips="1" connect="1" arrows="1" fold="1" page="1" pageScale="1" pageWidth="1169" pageHeight="1654" math="0" shadow="0">
      <root>
        <mxCell id="0" />
        <mxCell id="1" parent="0" />
        <mxCell id="PKACqPN7EyUSOJYuqOnJ-1" value="Système" style="swimlane;fillColor=#647687;fontColor=#ffffff;strokeColor=#314354;" vertex="1" parent="1">
          <mxGeometry x="230" y="65" width="520" height="1005" as="geometry" />
        </mxCell>
        <mxCell id="PKACqPN7EyUSOJYuqOnJ-2" value="Consulter les entreprises" style="ellipse;whiteSpace=wrap;html=1;" vertex="1" parent="PKACqPN7EyUSOJYuqOnJ-1">
          <mxGeometry x="130" y="40" width="120" height="80" as="geometry" />
        </mxCell>
        <mxCell id="PKACqPN7EyUSOJYuqOnJ-71" style="edgeStyle=orthogonalEdgeStyle;rounded=0;orthogonalLoop=1;jettySize=auto;html=1;entryX=1;entryY=0.5;entryDx=0;entryDy=0;dashed=1;startArrow=none;startFill=0;endArrow=classic;endFill=1;strokeColor=#FF8000;strokeWidth=2;exitX=0.997;exitY=0.372;exitDx=0;exitDy=0;exitPerimeter=0;" edge="1" parent="PKACqPN7EyUSOJYuqOnJ-1" source="PKACqPN7EyUSOJYuqOnJ-3" target="PKACqPN7EyUSOJYuqOnJ-48">
          <mxGeometry relative="1" as="geometry" />
        </mxCell>
        <mxCell id="PKACqPN7EyUSOJYuqOnJ-3" value="Répondre à une proposition" style="ellipse;whiteSpace=wrap;html=1;" vertex="1" parent="PKACqPN7EyUSOJYuqOnJ-1">
          <mxGeometry x="130" y="225" width="120" height="80" as="geometry" />
        </mxCell>
        <mxCell id="PKACqPN7EyUSOJYuqOnJ-77" style="edgeStyle=orthogonalEdgeStyle;rounded=0;orthogonalLoop=1;jettySize=auto;html=1;entryX=0.01;entryY=0.326;entryDx=0;entryDy=0;dashed=1;startArrow=none;startFill=0;endArrow=classic;endFill=1;strokeColor=#80FF00;strokeWidth=2;exitX=0;exitY=1;exitDx=0;exitDy=0;entryPerimeter=0;" edge="1" parent="PKACqPN7EyUSOJYuqOnJ-1" source="PKACqPN7EyUSOJYuqOnJ-6" target="PKACqPN7EyUSOJYuqOnJ-4">
          <mxGeometry relative="1" as="geometry">
            <Array as="points">
              <mxPoint x="110" y="483" />
              <mxPoint x="110" y="726" />
            </Array>
          </mxGeometry>
        </mxCell>
        <mxCell id="PKACqPN7EyUSOJYuqOnJ-4" value="Gérer une &lt;br&gt;proposition (créer/modifier/&lt;br&gt;supprimer)" style="ellipse;whiteSpace=wrap;html=1;" vertex="1" parent="PKACqPN7EyUSOJYuqOnJ-1">
          <mxGeometry x="130" y="695" width="120" height="95" as="geometry" />
        </mxCell>
        <mxCell id="PKACqPN7EyUSOJYuqOnJ-5" value="Consulter les profils" style="ellipse;whiteSpace=wrap;html=1;" vertex="1" parent="PKACqPN7EyUSOJYuqOnJ-1">
          <mxGeometry x="130" y="905" width="120" height="80" as="geometry" />
        </mxCell>
        <mxCell id="PKACqPN7EyUSOJYuqOnJ-78" style="edgeStyle=orthogonalEdgeStyle;rounded=0;orthogonalLoop=1;jettySize=auto;html=1;entryX=0.05;entryY=0.737;entryDx=0;entryDy=0;entryPerimeter=0;dashed=1;startArrow=none;startFill=0;endArrow=classic;endFill=1;strokeColor=#80FF00;strokeWidth=2;exitX=0.017;exitY=0.25;exitDx=0;exitDy=0;exitPerimeter=0;" edge="1" parent="PKACqPN7EyUSOJYuqOnJ-1" source="PKACqPN7EyUSOJYuqOnJ-6" target="PKACqPN7EyUSOJYuqOnJ-41">
          <mxGeometry relative="1" as="geometry">
            <Array as="points">
              <mxPoint x="100" y="435" />
              <mxPoint x="100" y="375" />
            </Array>
          </mxGeometry>
        </mxCell>
        <mxCell id="PKACqPN7EyUSOJYuqOnJ-6" value="se connecter" style="ellipse;whiteSpace=wrap;html=1;" vertex="1" parent="PKACqPN7EyUSOJYuqOnJ-1">
          <mxGeometry x="130" y="415" width="120" height="80" as="geometry" />
        </mxCell>
        <mxCell id="PKACqPN7EyUSOJYuqOnJ-54" style="edgeStyle=orthogonalEdgeStyle;rounded=0;orthogonalLoop=1;jettySize=auto;html=1;entryX=1;entryY=0.5;entryDx=0;entryDy=0;endArrow=classic;endFill=1;strokeColor=#00FF00;strokeWidth=2;exitX=1;exitY=0.5;exitDx=0;exitDy=0;dashed=1;" edge="1" parent="PKACqPN7EyUSOJYuqOnJ-1" source="PKACqPN7EyUSOJYuqOnJ-7" target="PKACqPN7EyUSOJYuqOnJ-6">
          <mxGeometry relative="1" as="geometry" />
        </mxCell>
        <mxCell id="PKACqPN7EyUSOJYuqOnJ-7" value="S&#39;inscrire" style="ellipse;whiteSpace=wrap;html=1;" vertex="1" parent="PKACqPN7EyUSOJYuqOnJ-1">
          <mxGeometry x="130" y="510" width="120" height="75" as="geometry" />
        </mxCell>
        <mxCell id="PKACqPN7EyUSOJYuqOnJ-56" style="edgeStyle=orthogonalEdgeStyle;rounded=0;orthogonalLoop=1;jettySize=auto;html=1;entryX=1;entryY=0.5;entryDx=0;entryDy=0;dashed=1;endArrow=classic;endFill=1;strokeColor=#FF8000;strokeWidth=2;exitX=1;exitY=0.5;exitDx=0;exitDy=0;" edge="1" parent="PKACqPN7EyUSOJYuqOnJ-1" source="PKACqPN7EyUSOJYuqOnJ-40" target="PKACqPN7EyUSOJYuqOnJ-3">
          <mxGeometry relative="1" as="geometry">
            <Array as="points">
              <mxPoint x="330" y="635" />
              <mxPoint x="330" y="265" />
            </Array>
          </mxGeometry>
        </mxCell>
        <mxCell id="PKACqPN7EyUSOJYuqOnJ-75" style="edgeStyle=orthogonalEdgeStyle;rounded=0;orthogonalLoop=1;jettySize=auto;html=1;entryX=0;entryY=0.5;entryDx=0;entryDy=0;dashed=1;startArrow=none;startFill=0;endArrow=classic;endFill=1;strokeColor=#FF8000;strokeWidth=2;exitX=1.01;exitY=0.637;exitDx=0;exitDy=0;exitPerimeter=0;" edge="1" parent="PKACqPN7EyUSOJYuqOnJ-1" source="PKACqPN7EyUSOJYuqOnJ-40" target="PKACqPN7EyUSOJYuqOnJ-74">
          <mxGeometry relative="1" as="geometry" />
        </mxCell>
        <mxCell id="PKACqPN7EyUSOJYuqOnJ-40" value="Valider un recrutement" style="ellipse;whiteSpace=wrap;html=1;" vertex="1" parent="PKACqPN7EyUSOJYuqOnJ-1">
          <mxGeometry x="130" y="595" width="120" height="80" as="geometry" />
        </mxCell>
        <mxCell id="PKACqPN7EyUSOJYuqOnJ-68" style="edgeStyle=orthogonalEdgeStyle;rounded=0;orthogonalLoop=1;jettySize=auto;html=1;exitX=1;exitY=0.5;exitDx=0;exitDy=0;entryX=1;entryY=0.5;entryDx=0;entryDy=0;dashed=1;startArrow=none;startFill=0;endArrow=classic;endFill=1;strokeColor=#00FF00;strokeWidth=2;" edge="1" parent="PKACqPN7EyUSOJYuqOnJ-1" source="PKACqPN7EyUSOJYuqOnJ-41" target="PKACqPN7EyUSOJYuqOnJ-5">
          <mxGeometry relative="1" as="geometry">
            <Array as="points">
              <mxPoint x="290" y="355" />
              <mxPoint x="290" y="945" />
            </Array>
          </mxGeometry>
        </mxCell>
        <mxCell id="PKACqPN7EyUSOJYuqOnJ-41" value="Gérer son profil&lt;br&gt;(créer/modifier/&lt;br&gt;supprimer)" style="ellipse;whiteSpace=wrap;html=1;" vertex="1" parent="PKACqPN7EyUSOJYuqOnJ-1">
          <mxGeometry x="130" y="315" width="120" height="80" as="geometry" />
        </mxCell>
        <mxCell id="PKACqPN7EyUSOJYuqOnJ-66" style="edgeStyle=orthogonalEdgeStyle;rounded=0;orthogonalLoop=1;jettySize=auto;html=1;entryX=1;entryY=0.5;entryDx=0;entryDy=0;startArrow=none;startFill=0;endArrow=classic;endFill=1;strokeColor=#00FF00;strokeWidth=2;dashed=1;" edge="1" parent="PKACqPN7EyUSOJYuqOnJ-1" source="PKACqPN7EyUSOJYuqOnJ-42" target="PKACqPN7EyUSOJYuqOnJ-2">
          <mxGeometry relative="1" as="geometry">
            <Array as="points">
              <mxPoint x="280" y="845" />
              <mxPoint x="280" y="80" />
            </Array>
          </mxGeometry>
        </mxCell>
        <mxCell id="PKACqPN7EyUSOJYuqOnJ-76" style="edgeStyle=orthogonalEdgeStyle;rounded=0;orthogonalLoop=1;jettySize=auto;html=1;entryX=0.967;entryY=0.342;entryDx=0;entryDy=0;entryPerimeter=0;dashed=1;startArrow=none;startFill=0;endArrow=classic;endFill=1;strokeColor=#80FF00;strokeWidth=2;exitX=1.017;exitY=0.668;exitDx=0;exitDy=0;exitPerimeter=0;" edge="1" parent="PKACqPN7EyUSOJYuqOnJ-1" source="PKACqPN7EyUSOJYuqOnJ-6" target="PKACqPN7EyUSOJYuqOnJ-42">
          <mxGeometry relative="1" as="geometry">
            <Array as="points">
              <mxPoint x="260" y="468" />
              <mxPoint x="260" y="832" />
            </Array>
          </mxGeometry>
        </mxCell>
        <mxCell id="PKACqPN7EyUSOJYuqOnJ-42" value="Gérer son entreprise&lt;br&gt;(créer/modifier/&lt;br&gt;supprimer)" style="ellipse;whiteSpace=wrap;html=1;" vertex="1" parent="PKACqPN7EyUSOJYuqOnJ-1">
          <mxGeometry x="124" y="805" width="120" height="80" as="geometry" />
        </mxCell>
        <mxCell id="PKACqPN7EyUSOJYuqOnJ-48" value="Consulter les propositions" style="ellipse;whiteSpace=wrap;html=1;" vertex="1" parent="PKACqPN7EyUSOJYuqOnJ-1">
          <mxGeometry x="130" y="135" width="120" height="80" as="geometry" />
        </mxCell>
        <mxCell id="PKACqPN7EyUSOJYuqOnJ-55" value="Extend" style="text;html=1;strokeColor=none;fillColor=none;align=center;verticalAlign=middle;whiteSpace=wrap;rounded=0;" vertex="1" parent="PKACqPN7EyUSOJYuqOnJ-1">
          <mxGeometry x="250" y="480" width="60" height="30" as="geometry" />
        </mxCell>
        <mxCell id="PKACqPN7EyUSOJYuqOnJ-58" value="Include" style="text;html=1;strokeColor=none;fillColor=none;align=center;verticalAlign=middle;whiteSpace=wrap;rounded=0;" vertex="1" parent="PKACqPN7EyUSOJYuqOnJ-1">
          <mxGeometry x="295" y="425" width="60" height="30" as="geometry" />
        </mxCell>
        <mxCell id="PKACqPN7EyUSOJYuqOnJ-72" value="Include" style="text;html=1;strokeColor=none;fillColor=none;align=center;verticalAlign=middle;whiteSpace=wrap;rounded=0;" vertex="1" parent="PKACqPN7EyUSOJYuqOnJ-1">
          <mxGeometry x="235" y="200" width="60" height="30" as="geometry" />
        </mxCell>
        <mxCell id="PKACqPN7EyUSOJYuqOnJ-74" value="Mettre à jour la proposition" style="ellipse;whiteSpace=wrap;html=1;" vertex="1" parent="PKACqPN7EyUSOJYuqOnJ-1">
          <mxGeometry x="355" y="605" width="120" height="80" as="geometry" />
        </mxCell>
        <mxCell id="PKACqPN7EyUSOJYuqOnJ-79" value="Extend" style="text;html=1;strokeColor=none;fillColor=none;align=center;verticalAlign=middle;whiteSpace=wrap;rounded=0;" vertex="1" parent="PKACqPN7EyUSOJYuqOnJ-1">
          <mxGeometry x="70" y="585" width="60" height="30" as="geometry" />
        </mxCell>
        <mxCell id="PKACqPN7EyUSOJYuqOnJ-80" value="Extend" style="text;html=1;strokeColor=none;fillColor=none;align=center;verticalAlign=middle;whiteSpace=wrap;rounded=0;" vertex="1" parent="PKACqPN7EyUSOJYuqOnJ-1">
          <mxGeometry x="70" y="385" width="60" height="30" as="geometry" />
        </mxCell>
        <mxCell id="PKACqPN7EyUSOJYuqOnJ-59" style="edgeStyle=orthogonalEdgeStyle;rounded=0;orthogonalLoop=1;jettySize=auto;html=1;entryX=0;entryY=0.6;entryDx=0;entryDy=0;entryPerimeter=0;endArrow=none;endFill=0;strokeColor=#0000FF;strokeWidth=2;" edge="1" parent="1" source="PKACqPN7EyUSOJYuqOnJ-27" target="PKACqPN7EyUSOJYuqOnJ-7">
          <mxGeometry relative="1" as="geometry">
            <Array as="points">
              <mxPoint x="260" y="700" />
              <mxPoint x="260" y="620" />
            </Array>
          </mxGeometry>
        </mxCell>
        <mxCell id="PKACqPN7EyUSOJYuqOnJ-60" style="edgeStyle=orthogonalEdgeStyle;rounded=0;orthogonalLoop=1;jettySize=auto;html=1;entryX=0.003;entryY=0.678;entryDx=0;entryDy=0;entryPerimeter=0;endArrow=none;endFill=0;strokeColor=#0000FF;strokeWidth=2;startArrow=none;startFill=0;" edge="1" parent="1" source="PKACqPN7EyUSOJYuqOnJ-27" target="PKACqPN7EyUSOJYuqOnJ-6">
          <mxGeometry relative="1" as="geometry">
            <Array as="points">
              <mxPoint x="260" y="700" />
              <mxPoint x="260" y="534" />
            </Array>
          </mxGeometry>
        </mxCell>
        <mxCell id="PKACqPN7EyUSOJYuqOnJ-61" style="edgeStyle=orthogonalEdgeStyle;rounded=0;orthogonalLoop=1;jettySize=auto;html=1;startArrow=none;startFill=0;endArrow=none;endFill=0;strokeColor=#0000FF;strokeWidth=2;" edge="1" parent="1" source="PKACqPN7EyUSOJYuqOnJ-27" target="PKACqPN7EyUSOJYuqOnJ-40">
          <mxGeometry relative="1" as="geometry" />
        </mxCell>
        <mxCell id="PKACqPN7EyUSOJYuqOnJ-62" style="edgeStyle=orthogonalEdgeStyle;rounded=0;orthogonalLoop=1;jettySize=auto;html=1;entryX=0;entryY=0.5;entryDx=0;entryDy=0;startArrow=none;startFill=0;endArrow=none;endFill=0;strokeColor=#0000FF;strokeWidth=2;" edge="1" parent="1" source="PKACqPN7EyUSOJYuqOnJ-27" target="PKACqPN7EyUSOJYuqOnJ-4">
          <mxGeometry relative="1" as="geometry">
            <Array as="points">
              <mxPoint x="260" y="700" />
              <mxPoint x="260" y="808" />
            </Array>
          </mxGeometry>
        </mxCell>
        <mxCell id="PKACqPN7EyUSOJYuqOnJ-63" style="edgeStyle=orthogonalEdgeStyle;rounded=0;orthogonalLoop=1;jettySize=auto;html=1;entryX=0;entryY=0.5;entryDx=0;entryDy=0;startArrow=none;startFill=0;endArrow=none;endFill=0;strokeColor=#0000FF;strokeWidth=2;" edge="1" parent="1" source="PKACqPN7EyUSOJYuqOnJ-27" target="PKACqPN7EyUSOJYuqOnJ-42">
          <mxGeometry relative="1" as="geometry">
            <Array as="points">
              <mxPoint x="260" y="700" />
              <mxPoint x="260" y="910" />
            </Array>
          </mxGeometry>
        </mxCell>
        <mxCell id="PKACqPN7EyUSOJYuqOnJ-64" style="edgeStyle=orthogonalEdgeStyle;rounded=0;orthogonalLoop=1;jettySize=auto;html=1;entryX=0;entryY=0.5;entryDx=0;entryDy=0;startArrow=none;startFill=0;endArrow=none;endFill=0;strokeColor=#0000FF;strokeWidth=2;" edge="1" parent="1" source="PKACqPN7EyUSOJYuqOnJ-27" target="PKACqPN7EyUSOJYuqOnJ-5">
          <mxGeometry relative="1" as="geometry">
            <Array as="points">
              <mxPoint x="260" y="700" />
              <mxPoint x="260" y="1010" />
            </Array>
          </mxGeometry>
        </mxCell>
        <mxCell id="PKACqPN7EyUSOJYuqOnJ-27" value="Recruteur" style="shape=umlActor;verticalLabelPosition=bottom;verticalAlign=top;html=1;outlineConnect=0;fillColor=#dae8fc;strokeColor=#6c8ebf;" vertex="1" parent="1">
          <mxGeometry x="100" y="670" width="30" height="60" as="geometry" />
        </mxCell>
        <mxCell id="PKACqPN7EyUSOJYuqOnJ-47" style="edgeStyle=orthogonalEdgeStyle;rounded=0;orthogonalLoop=1;jettySize=auto;html=1;entryX=0;entryY=0.5;entryDx=0;entryDy=0;strokeColor=#FF0000;strokeWidth=2;endArrow=none;endFill=0;" edge="1" parent="1" source="PKACqPN7EyUSOJYuqOnJ-37" target="PKACqPN7EyUSOJYuqOnJ-2">
          <mxGeometry relative="1" as="geometry" />
        </mxCell>
        <mxCell id="PKACqPN7EyUSOJYuqOnJ-49" style="edgeStyle=orthogonalEdgeStyle;rounded=0;orthogonalLoop=1;jettySize=auto;html=1;entryX=0;entryY=0.5;entryDx=0;entryDy=0;endArrow=none;endFill=0;strokeColor=#FF0000;strokeWidth=2;" edge="1" parent="1" source="PKACqPN7EyUSOJYuqOnJ-37" target="PKACqPN7EyUSOJYuqOnJ-48">
          <mxGeometry relative="1" as="geometry" />
        </mxCell>
        <mxCell id="PKACqPN7EyUSOJYuqOnJ-50" style="edgeStyle=orthogonalEdgeStyle;rounded=0;orthogonalLoop=1;jettySize=auto;html=1;entryX=0;entryY=0.5;entryDx=0;entryDy=0;endArrow=none;endFill=0;strokeColor=#FF0000;strokeWidth=2;" edge="1" parent="1" source="PKACqPN7EyUSOJYuqOnJ-37" target="PKACqPN7EyUSOJYuqOnJ-3">
          <mxGeometry relative="1" as="geometry" />
        </mxCell>
        <mxCell id="PKACqPN7EyUSOJYuqOnJ-51" style="edgeStyle=orthogonalEdgeStyle;rounded=0;orthogonalLoop=1;jettySize=auto;html=1;entryX=0;entryY=0.5;entryDx=0;entryDy=0;endArrow=none;endFill=0;strokeColor=#FF0000;strokeWidth=2;" edge="1" parent="1" source="PKACqPN7EyUSOJYuqOnJ-37" target="PKACqPN7EyUSOJYuqOnJ-41">
          <mxGeometry relative="1" as="geometry" />
        </mxCell>
        <mxCell id="PKACqPN7EyUSOJYuqOnJ-52" style="edgeStyle=orthogonalEdgeStyle;rounded=0;orthogonalLoop=1;jettySize=auto;html=1;entryX=0;entryY=0.5;entryDx=0;entryDy=0;endArrow=none;endFill=0;strokeColor=#FF0000;strokeWidth=2;" edge="1" parent="1" source="PKACqPN7EyUSOJYuqOnJ-37" target="PKACqPN7EyUSOJYuqOnJ-6">
          <mxGeometry relative="1" as="geometry" />
        </mxCell>
        <mxCell id="PKACqPN7EyUSOJYuqOnJ-53" style="edgeStyle=orthogonalEdgeStyle;rounded=0;orthogonalLoop=1;jettySize=auto;html=1;entryX=0;entryY=0.5;entryDx=0;entryDy=0;endArrow=none;endFill=0;strokeColor=#FF0000;strokeWidth=2;" edge="1" parent="1" source="PKACqPN7EyUSOJYuqOnJ-37" target="PKACqPN7EyUSOJYuqOnJ-7">
          <mxGeometry relative="1" as="geometry" />
        </mxCell>
        <mxCell id="PKACqPN7EyUSOJYuqOnJ-37" value="Développeur" style="shape=umlActor;verticalLabelPosition=bottom;verticalAlign=top;html=1;outlineConnect=0;fillColor=#f8cecc;strokeColor=#b85450;strokeWidth=1;" vertex="1" parent="1">
          <mxGeometry x="100" y="350" width="30" height="60" as="geometry" />
        </mxCell>
      </root>
    </mxGraphModel>
  </diagram>
</mxfile>
